<mxfile host="app.diagrams.net" modified="2023-08-02T15:27:00.866Z" agent="Mozilla/5.0 (Windows NT 10.0; Win64; x64) AppleWebKit/537.36 (KHTML, like Gecko) Chrome/115.0.0.0 Safari/537.36" version="21.6.6" etag="tP8LFzQseFus8tlKBEV_" type="github">
  <diagram name="PÃ¡gina-1" id="fT7kqpHaqLvqwdR77mZW">
    <mxGraphModel>
      <root>
        <mxCell id="0" />
        <mxCell id="1" parent="0" />
      </root>
    </mxGraphModel>
  </diagram>
</mxfile>
